<?xml version="1.0" encoding="utf-8"?>
<!-- Generator: Adobe Illustrator 24.2.0, SVG Export Plug-In . SVG Version: 6.00 Build 0)  -->
<svg version="1.1" id="Layer_1" xmlns="http://www.w3.org/2000/svg" xmlns:xlink="http://www.w3.org/1999/xlink" x="0px" y="0px"
	 viewBox="0 0 1000 495" style="enable-background:new 0 0 1000 495;" xml:space="preserve">
<style type="text/css">
	.st0{fill:#FFFFFF;}
	.st1{fill:#214052;}
	.st2{fill:#6DBE4A;}
	.st3{fill:#A7D892;}
</style>
<g>
	<g>
		<path class="st1" d="M345.28,324.73c0,98.83-68.9,169.82-163.56,169.82c-57.07,0-100.91-21.58-125.97-58.46h-1.39l-1.39,51.5H2.85
			V0.41h59.16v203.22h1.39c25.75-30.62,66.12-48.72,118.31-48.72C276.37,154.92,345.28,225.91,345.28,324.73z M285.42,324.73
			c0-68.9-46.63-116.92-112.75-116.92c-66.81,0-112.75,48.02-112.75,116.92s45.93,116.92,112.75,116.92
			C238.79,441.66,285.42,393.63,285.42,324.73z"/>
		<path class="st1" d="M662.45,493.76L792.6,326.73L669.41,168.05h73.08l90.48,121.79l89.08-121.79h70.99L870.55,326.73L1000,493.76
			h-73.77l-96.74-131.54l-96.74,131.54H662.45z"/>
		<rect x="604.18" y="344.21" class="st1" width="54.98" height="0.01"/>
		<g>
			<path class="st2" d="M494.22,154.92c-99.52,0-169.82,70.29-169.82,169.82c0,102.31,74.47,169.82,189.3,169.82v-52.89h-1.41v-0.05
				c-72.19-0.93-119.8-37.62-128.04-97.39c-4.39-18.5-2.82-35.99,0.11-49.41h-0.11c11.14-52.2,54.98-87,110.66-87
				c59.16,0,100.92,34.1,109.27,87v49.4h54.98v-32.7C659.16,216.86,594.43,154.92,494.22,154.92z"/>
			<path class="st2" d="M513.7,494.55h145.46v-52.89h-20.88v15.3C609.05,480.63,564.51,494.55,513.7,494.55z"/>
			<path class="st2" d="M638.28,456.97v-15.3H513.7v52.89C564.51,494.55,609.05,480.63,638.28,456.97z"/>
			<path class="st1" d="M513.7,441.66v-0.03c-0.47,0-0.94-0.02-1.41-0.02v0.05H513.7z"/>
			<rect x="407.72" y="294.81" class="st1" width="48.95" height="48.95"/>
			<rect x="471.36" y="294.81" class="st1" width="48.95" height="48.95"/>
			<rect x="535.01" y="294.81" class="st1" width="48.95" height="48.95"/>
		</g>
	</g>
</g>
</svg>
